<svg width="7" height="7" viewBox="0 0 7 7" fill="none" xmlns="http://www.w3.org/2000/svg">
<path d="M1.673 2.03351V3.49651C1.673 3.93984 1.785 4.35284 2.009 4.73551C2.22367 5.10417 2.51533 5.39584 2.884 5.61051C3.26667 5.83451 3.67733 5.94651 4.116 5.94651C4.55933 5.94651 4.97233 5.83451 5.355 5.61051C5.72367 5.39584 6.01533 5.10417 6.23 4.73551C6.454 4.35284 6.566 3.94217 6.566 3.50351C6.566 3.06017 6.454 2.64717 6.23 2.26451C6.01533 1.89584 5.72367 1.60417 5.355 1.38951C4.97233 1.16551 4.55933 1.05351 4.116 1.05351V0.619507C4.63867 0.619507 5.124 0.750173 5.572 1.01151C6.006 1.26817 6.35133 1.61351 6.608 2.04751C6.86933 2.49084 7 2.97384 7 3.49651C7 4.01917 6.86933 4.50451 6.608 4.95251C6.35133 5.38651 6.006 5.73184 5.572 5.98851C5.124 6.24984 4.63867 6.38051 4.116 6.38051C3.59333 6.38051 3.11033 6.24984 2.667 5.98851C2.233 5.73184 1.88767 5.38651 1.631 4.95251C1.36967 4.50451 1.239 4.01917 1.239 3.49651V2.03351L0.371 2.90151C0.329 2.94351 0.277667 2.96451 0.217 2.96451C0.156333 2.96451 0.105 2.94351 0.063 2.90151C0.021 2.85484 0 2.80351 0 2.74751C0 2.68684 0.021 2.63551 0.063 2.59351L1.456 1.20051L2.849 2.59351C2.891 2.63551 2.912 2.68684 2.912 2.74751C2.912 2.80351 2.891 2.85484 2.849 2.90151C2.807 2.94351 2.75567 2.96451 2.695 2.96451C2.639 2.96451 2.58533 2.94351 2.534 2.90151L1.673 2.03351Z" fill="url(#paint0_linear_89_115)"/>
<defs>
<linearGradient id="paint0_linear_89_115" x1="3.51691" y1="0.619507" x2="3.47324" y2="6.3803" gradientUnits="userSpaceOnUse">
<stop stop-color="#0C4A4D"/>
<stop offset="1" stop-color="#083032"/>
</linearGradient>
</defs>
</svg>
